<?xml version="1.0" encoding="UTF-8" standalone="no"?>
<!-- Created with Inkscape (http://www.inkscape.org/) -->
<svg width="97.265343mm" height="112.72758mm" viewBox="0 0 97.265343 112.72758" version="1.1" id="svg5" inkscape:version="1.1.2 (0a00cf5339, 2022-02-04)" sodipodi:docname="Bernese_Mountain_Dog.svg" xmlns:inkscape="http://www.inkscape.org/namespaces/inkscape" xmlns:sodipodi="http://sodipodi.sourceforge.net/DTD/sodipodi-0.dtd" xmlns="http://www.w3.org/2000/svg" xmlns:svg="http://www.w3.org/2000/svg">
  <sodipodi:namedview id="namedview7" pagecolor="#ffffff" bordercolor="#666666" borderopacity="1.0" inkscape:pageshadow="2" inkscape:pageopacity="0.0" inkscape:pagecheckerboard="0" inkscape:document-units="mm" showgrid="false" inkscape:zoom="0.98520765" inkscape:cx="521.20992" inkscape:cy="123.32426" inkscape:window-width="1846" inkscape:window-height="1016" inkscape:window-x="0" inkscape:window-y="0" inkscape:window-maximized="1" inkscape:current-layer="layer1" fit-margin-top="4" fit-margin-left="4" fit-margin-right="4" fit-margin-bottom="4"/>
  <defs id="defs2">
    <inkscape:path-effect effect="spiro" id="path-effect2111" is_visible="true" lpeversion="1"/>
  </defs>
  <g inkscape:label="Layer 1" inkscape:groupmode="layer" id="layer1" transform="translate(-54.552196,-61.986795)">
    <path style="fill:#ffffff;stroke:#000000;stroke-width:0.264583px;stroke-linecap:butt;stroke-linejoin:miter;stroke-opacity:1" d="m 122.61837,112.35158 0.84417,4.41253 1.97315,-0.91981 3.19414,-0.92279 3.84395,-1.78474 0.74615,-1.29142 -2.51756,1.82067 -5.13762,-0.20176 -2.94638,-1.11268 0.84417,4.41253 1.97315,-0.91981 3.19414,-0.92279 3.84395,-1.78474" id="path2624"/>
    <path style="fill:#ffaaaa;stroke:none;stroke-width:0.264583px;stroke-linecap:butt;stroke-linejoin:miter;stroke-opacity:1" d="m 102.47208,132.69585 1.76249,3.60954 1.86487,0.88272 1.43228,3.07847 0.60182,4.14938 -2.34581,-0.0931 -4.72818,-3.25496 -5.03526,1.178 -8.05433,-5.85271 -0.89163,-3.68815 0.66909,-2.58144 3.63175,-5.66344 2.60516,0.33974 4.27863,2.70456 6.2914,-0.59417 7.4342,-2.19273 7.18793,-3.67333 4.28605,-4.28012 1.97315,-0.91981 4.9848,11.74248 3.67333,5.76072 -5.82084,2.11668 -8.03504,-4.03978 -13.0807,-0.97026 z" id="path5125" sodipodi:nodetypes="ccccccccccccccccccccccccc"/>
    <path style="fill:#000000;stroke:#000000;stroke-width:0.264583px;stroke-linecap:butt;stroke-linejoin:miter;stroke-opacity:1" d="m 120.73721,78.763805 1.28515,5.462375 2.949,3.547909 0.82373,3.383357 4.18814,2.284702 3.52337,2.643204 3.49691,5.363638 2.05623,6.64939 1.1839,6.05744 1.15273,2.55471 3.22381,4.51156 -2.37223,6.26217 -1.25214,7.62113 -1.49248,5.36906 -0.86641,3.14963 -1.33818,7.31254 1.15719,3.34547 3.62734,0.99103 4.85129,0.9302 0.18693,-9.36581 -0.36199,-6.46543 0.92575,-10.28563 v -7.21611 l -0.72695,-4.46853 -1.28774,-6.18948 -1.25363,-3.69855 -1.01624,-5.42692 0.51331,-7.910428 -1.30258,-4.873524 -1.6349,-5.615334 -4.92399,-5.070864 -5.26669,-6.28146 -3.92406,-3.634758 -2.69417,-1.152739 -2.11261,-1.047406 -0.91537,5.167296 -0.55485,3.854328 z" id="path4453" sodipodi:nodetypes="cccccccccccccccccccccccccccccccccccccc"/>
    <path style="fill:#ffffff;stroke:#000000;stroke-width:0.264583px;stroke-linecap:butt;stroke-linejoin:miter;stroke-opacity:1" d="m 106.84053,70.396436 4.53223,12.360585 -0.27661,5.617537 -8.21973,8.865704 -2.32579,11.056368 0.05,11.64382 3.95373,6.96984 2.46867,2.66598 4.96553,-4.85871 7.18793,-3.67333 4.28605,-4.28012 -0.84417,-4.41253 -4.41511,-4.92657 -3.10512,-3.71488 -0.69283,-3.728218 3.25793,-4.40919 5.37203,-2.538401 4.47001,0.361992 4.86316,2.039919 3.78906,5.788908 -0.22699,5.96546 -3.45673,5.94617 -3.84395,1.78474 -3.19414,0.92279 -0.1083,3.14369 3.41223,4.87949 1.68089,3.71932 3.67333,5.76072 3.65108,-2.90335 1.1112,-5.08274 2.01024,-7.16863 -1.24026,-9.82127 -3.53833,-9.902868 -8.69969,-7.609264 -5.3657,-6.633218 -1.28517,-5.462375 0.68244,-5.557475 2.72533,-2.940447 -2.08998,-2.765536 -6.10084,-1.254953 -7.54844,0.0044 -5.59456,-0.130556 -7.203632,0.70935 6.786752,2.349783 z" id="path87" sodipodi:nodetypes="ccccccccccccccccccccccccccccccccccccccccccccc"/>
    <path style="fill:#4d4d4d;stroke:#000000;stroke-width:0.264583px;stroke-linecap:butt;stroke-linejoin:miter;stroke-opacity:1" d="m 117.22204,106.0219 3.24218,3.53462 2.15415,2.79506 2.94638,1.11268 5.13762,0.20176 5.38687,-4.29495 1.54291,-4.10802 -1.5444,-4.67771 -3.19265,-4.923998 -5.38982,-2.265029 -4.47001,-0.361992 -2.33813,1.018824 -3.0339,1.519577 -3.25793,4.40919 0.69283,3.728218 z" id="path268" sodipodi:nodetypes="cccccccccccccccc"/>
    <path style="fill:#000000;stroke:#000000;stroke-width:0.264583px;stroke-linecap:butt;stroke-linejoin:miter;stroke-opacity:1" d="m 118.85507,105.6946 2.64521,0.2077 2.42417,-1.47467 1.0474,-1.61117 -0.58452,-2.42713 -2.02657,-1.910838 -1.54737,0.54892 -2.28471,1.630448 -0.21511,1.91975 z" id="path538"/>
    <path style="fill:#000000;stroke:#000000;stroke-width:0.264583px;stroke-linecap:butt;stroke-linejoin:miter;stroke-opacity:1" d="m 128.71127,104.19361 1.41681,1.79067 2.79504,1.23137 1.55331,-0.32045 -0.71064,-2.53098 -1.01031,-0.34864 0.25814,-3.67037 -2.65707,-1.894518 -0.77887,2.240188 z" id="path686"/>
    <path style="fill:#d45500;stroke:#000000;stroke-width:0.264583px;stroke-linecap:butt;stroke-linejoin:miter;stroke-opacity:1" d="m 104.55436,126.91029 -3.95373,-6.96984 -0.05,-11.64382 1.61117,-8.448968 1.45093,-3.46563 -3.3986,2.61046 -5.556262,5.731688 -4.92817,4.0525 -6.36332,6.43489 -5.44621,3.71191 -5.65984,7.80361 -0.36941,10.82565 -4.32907,12.99761 -0.2804,5.95804 6.97307,2.92498 11.19628,6.13076 8.35847,-0.18396 c 2.87753,-1.14949 3.73044,-5.46656 3.23271,-11.89679 l -1.08301,-4.14363 -4.7608,-5.42544 -4.41808,-5.10943 -1.84261,-6.19393 -0.66167,-3.62438 0.3116,-1.59125 5.34824,-4.19024 1.44352,1.2551 2.60516,0.33974 1.99392,2.19273 2.28471,0.51183 z" id="path834" sodipodi:nodetypes="cccccccccccccccccccccccccccccc"/>
    <path style="fill:#000000;stroke:#000000;stroke-width:0.264583px;stroke-linecap:butt;stroke-linejoin:miter;stroke-opacity:1" d="m 95.607528,66.828588 -4.88987,2.885556 -3.52052,3.29947 -2.01322,1.396045 -2.6007,2.255036 -2.91078,2.808409 -4.18665,5.74589 -2.82918,3.035395 -0.23886,4.225225 0.16468,7.297688 -4.08131,8.894038 -0.81746,9.3851 -2.32772,7.14639 v 3.56503 l -0.71064,2.29806 -0.70915,6.91643 -0.90201,9.3762 -4.33204,8.72342 c 7.81734,13.65641 7.38738,13.29553 24.31293,14.49602 l 3.92406,-4.13769 -1.36637,-2.18976 v 0 l -11.3182,-4.81717 -3.06952,-5.47588 0.72695,-6.68647 c 0,0 0.98658,-3.95077 1.35451,-6.4951 0.36793,-2.54433 1.10971,-9.14773 1.10971,-9.14773 l 2.13487,-6.28739 3.30392,-5.09015 2.66451,-4.68513 7.25023,-6.78884 3.3336,-2.15267 4.76969,-4.54568 2.381142,-3.085838 3.38255,-1.86485 2.53395,-3.183744 2.51021,-2.554712 2.45531,-3.014628 0.27661,-5.617537 -0.43981,-3.662229 -0.1988,-3.342497 -0.58304,-3.609538 -3.31579,-4.330557 -3.7846,-1.075592 -3.929992,-0.24034 z" id="path1624" sodipodi:nodetypes="cccccccccccccccccccccccccscccccccccccccccccccc"/>
    <g id="g3872" transform="translate(210.28137,-5.5032979)">
      <path style="fill:#ffffff;stroke:#000000;stroke-width:0.215118px;stroke-linecap:butt;stroke-linejoin:miter;stroke-opacity:1" d="m -114.21609,89.385919 0.60038,0.87969 0.97045,0.610247 1.49761,0.265833 1.65519,-0.0449 0.95326,-0.518317 0.79164,-0.743487 0.30718,-0.832449 -0.10518,-0.835836 -0.98247,-1.227914 -1.32353,-0.824616 -1.1602,-0.0718 -1.37357,0.269857 -1.14559,0.889423 -0.55337,0.695195 -0.18632,0.754495 z" id="path1961"/>
      <circle style="fill:#aa4400;stroke:#000000;stroke-width:0.338836;stroke-miterlimit:4;stroke-dasharray:none;stroke-opacity:1" id="path3754" cx="-110.3033" cy="89.050522" r="2.3074915"/>
      <ellipse style="fill:#000000;stroke-width:0.295189" id="path2303" cx="-109.71096" cy="88.816238" rx="1.0293653" ry="0.97757512"/>
      <ellipse style="fill:#ffffff;stroke:none;stroke-width:0;stroke-miterlimit:4;stroke-dasharray:none" id="path2407" cx="-109.16125" cy="88.505295" rx="0.42631754" ry="0.40993196"/>
    </g>
    <g id="g7686" transform="matrix(1.2176185,0,0,1.2176185,228.68401,-24.287628)">
      <ellipse style="fill:#aa4400;stroke:#000000;stroke-width:0.3;stroke-miterlimit:4;stroke-dasharray:none;stroke-opacity:1" id="path3896" cx="-82.42981" cy="88.362305" rx="1.9840091" ry="1.894578"/>
      <ellipse style="fill:#000000;stroke:#000000;stroke-width:0.350035;stroke-miterlimit:4;stroke-dasharray:none;stroke-opacity:1" id="path4078" cx="-82.974899" cy="88.597321" rx="0.86352473" ry="0.73921269"/>
      <ellipse style="fill:#ffffff;stroke:none;stroke-width:0.273631;stroke-miterlimit:4;stroke-dasharray:none;stroke-opacity:1" id="path4204" cx="-83.318703" cy="88.289551" rx="0.50080085" ry="0.47921085"/>
    </g>
    <path style="fill:#ffffff;stroke:#000000;stroke-width:0.264583px;stroke-linecap:butt;stroke-linejoin:miter;stroke-opacity:1" d="m 103.75888,150.08638 4.75486,5.61088 4.36911,1.78474 8.49049,2.60813 6.05892,-0.13946 5.09609,-0.59195 1.86188,-1.55182 -12.22614,-1.21208 -7.93565,-3.9018 -3.5205,-2.47906 -2.95824,-0.51183 -5.21774,-1.9969 z" id="path4829"/>
    <path style="fill:#000000;stroke:#000000;stroke-width:0.264583px;stroke-linecap:butt;stroke-linejoin:miter;stroke-opacity:1" d="m 111.98909,151.96927 -7.56033,-3.67333 c 0,0 -1.33522,-0.26704 -3.28613,-0.64684 -1.950902,-0.3798 -4.993722,-0.36199 -6.959452,-1.11713 -1.96574,-0.75514 -7.15826,-5.61237 -7.15826,-5.61237 l -3.05171,-7.93565 0.6142,-5.58863 2.98495,-3.2965 2.36329,-0.89374 1.44352,1.2551 -3.63175,5.66343 -0.66909,2.58142 0.89163,3.68817 3.93889,2.90633 4.11544,2.94638 5.035262,-1.178 v 0 l 1.79216,-0.20325 5.28183,3.55129 1.59162,5.38725 z" id="path4977" sodipodi:nodetypes="ccssccccccccccccccccc"/>
    <path style="fill:#ff8080;stroke:#000000;stroke-width:0.299534px;stroke-linecap:butt;stroke-linejoin:miter;stroke-opacity:1" d="m 102.47208,132.94018 2.03688,4.00295 2.1552,0.97893 0.86756,2.34452 0.60182,4.14938 0.97901,4.23164 2.30264,2.33629 3.88345,5.4837 4.96532,1.65515 5.22765,1.87233 6.35239,0.88679 7.3674,-1.75057 2.87187,-3.85817 0.8024,-5.85882 -0.48692,-5.11186 -2.11575,-1.39355 -2.48953,-3.48305 -5.50369,-3.41558 -2.0986,0.22868 -4.50926,-2.66369 -2.67811,-2.04508 -4.1492,-0.46232 -4.06177,-0.36854 -4.21435,-0.24515 h -2.69184 z" id="path1210"/>
    <path style="fill:#d45500;stroke:#000000;stroke-width:0.145688px;stroke-linecap:butt;stroke-linejoin:miter;stroke-opacity:1" d="m 101.98818,76.930533 2.11211,-0.802087 0.93984,-0.600071 -0.10003,-1.649019 -1.62734,-1.698988 -1.84922,0.041 -0.97617,0.07218 -1.232812,1.860431 -0.17656,1.282571 0.6996,1.234735 0.679302,0.237465 z" id="path7272"/>
    <path style="fill:#d45500;stroke:#000000;stroke-width:0.218857px;stroke-linecap:butt;stroke-linejoin:miter;stroke-opacity:1" d="m 125.04033,76.415845 1.2477,1.54835 1.65514,0.287283 0.97947,-0.701322 -0.26441,-2.462909 -0.41823,-0.904489 -1.72315,-1.543614 -1.38372,-0.0083 -0.67311,0.803796 -0.16081,1.82201 z" id="path7488"/>
    <path style="fill:#d45500;stroke:#000000;stroke-width:0.264583px;stroke-linecap:butt;stroke-linejoin:miter;stroke-opacity:1" d="m 140.24364,114.15582 4.37654,7.06627 -4.33718,21.6868 -2.48953,-3.48305 -5.50369,-3.41558 -2.0986,0.22868 -1.9182,-0.77476 5.82086,-2.11666 3.65108,-2.90335 3.12144,-12.25137 z" id="path1023"/>
  </g>
</svg>