<?xml version="1.0" encoding="UTF-8" standalone="no"?>
<!-- Created with Inkscape (http://www.inkscape.org/) -->

<svg
   width="137.65932mm"
   height="133.20267mm"
   viewBox="0 0 137.65932 133.20267"
   version="1.1"
   id="svg5"
   inkscape:version="1.1.2 (0a00cf5339, 2022-02-04)"
   sodipodi:docname="Bernese_Mountain_Dog_coin.svg"
   xmlns:inkscape="http://www.inkscape.org/namespaces/inkscape"
   xmlns:sodipodi="http://sodipodi.sourceforge.net/DTD/sodipodi-0.dtd"
   xmlns="http://www.w3.org/2000/svg"
   xmlns:svg="http://www.w3.org/2000/svg">
  <sodipodi:namedview
     id="namedview7"
     pagecolor="#ffffff"
     bordercolor="#666666"
     borderopacity="1.0"
     inkscape:pageshadow="2"
     inkscape:pageopacity="0.0"
     inkscape:pagecheckerboard="0"
     inkscape:document-units="mm"
     showgrid="false"
     inkscape:zoom="0.98520765"
     inkscape:cx="275.57642"
     inkscape:cy="264.41126"
     inkscape:window-width="1920"
     inkscape:window-height="1011"
     inkscape:window-x="0"
     inkscape:window-y="0"
     inkscape:window-maximized="1"
     inkscape:current-layer="layer1"
     fit-margin-top="4"
     fit-margin-left="4"
     fit-margin-right="4"
     fit-margin-bottom="4" />
  <defs
     id="defs2">
    <inkscape:path-effect
       effect="spiro"
       id="path-effect2111"
       is_visible="true"
       lpeversion="1" />
  </defs>
  <g
     inkscape:label="Layer 1"
     inkscape:groupmode="layer"
     id="layer1"
     transform="translate(-46.236114,-51.42448)">
    <g
       id="g2314">
      <ellipse
         style="fill:#ffd42a;fill-opacity:1;stroke:#000000;stroke-width:0.283249;stroke-opacity:1"
         id="path1679"
         cx="113.69323"
         cy="118.02581"
         rx="63.315491"
         ry="62.459705" />
      <path
         style="fill:#ffffff;stroke:#000000;stroke-width:0.264583px;stroke-linecap:butt;stroke-linejoin:miter;stroke-opacity:1"
         d="m 130.35928,108.84462 0.84417,4.41253 1.97315,-0.91981 3.19414,-0.92279 3.84395,-1.78474 0.74615,-1.29142 -2.51756,1.82067 -5.13762,-0.20176 -2.94638,-1.11268 0.84417,4.41253 1.97315,-0.91981 3.19414,-0.92279 3.84395,-1.78474"
         id="path2624" />
      <path
         style="fill:#ffaaaa;stroke:none;stroke-width:0.264583px;stroke-linecap:butt;stroke-linejoin:miter;stroke-opacity:1"
         d="m 110.21299,129.18889 1.76249,3.60954 1.86487,0.88272 1.43228,3.07847 0.60182,4.14938 -2.34581,-0.0931 -4.72818,-3.25496 -5.03526,1.178 -8.054326,-5.85271 -0.89163,-3.68815 0.66909,-2.58144 3.63175,-5.66344 2.605156,0.33974 4.27863,2.70456 6.2914,-0.59417 7.4342,-2.19273 7.18793,-3.67333 4.28605,-4.28012 1.97315,-0.91981 4.9848,11.74248 3.67333,5.76072 -5.82084,2.11668 -8.03504,-4.03978 -13.0807,-0.97026 z"
         id="path5125"
         sodipodi:nodetypes="ccccccccccccccccccccccccc" />
      <path
         style="fill:#000000;stroke:#000000;stroke-width:0.264583px;stroke-linecap:butt;stroke-linejoin:miter;stroke-opacity:1"
         d="m 128.47812,75.256842 1.28515,5.462375 2.949,3.547909 0.82373,3.383357 4.18814,2.284702 3.52337,2.643204 3.49691,5.36364 2.05623,6.649391 1.1839,6.05744 1.15273,2.55471 3.22381,4.51156 -2.37223,6.26217 -1.25214,7.62113 -1.49248,5.36906 -0.86641,3.14963 -1.33818,7.31254 1.15719,3.34547 3.62734,0.99103 4.85129,0.9302 0.18693,-9.36581 -0.36199,-6.46543 0.92575,-10.28563 v -7.21611 l -0.72695,-4.46853 -1.28774,-6.18948 -1.25363,-3.69855 -1.01624,-5.426921 0.51331,-7.91043 -1.30258,-4.873524 -1.6349,-5.615334 -4.92399,-5.070864 -5.26669,-6.28146 -3.92406,-3.634758 -2.69417,-1.152739 -2.11261,-1.047406 -0.91537,5.167296 -0.55485,3.854328 z"
         id="path4453"
         sodipodi:nodetypes="cccccccccccccccccccccccccccccccccccccc" />
      <path
         style="fill:#ffffff;stroke:#000000;stroke-width:0.264583px;stroke-linecap:butt;stroke-linejoin:miter;stroke-opacity:1"
         d="m 114.58144,66.889473 4.53223,12.360585 -0.27661,5.617537 -8.21973,8.865704 -2.32579,11.056371 0.05,11.64382 3.95373,6.96984 2.46867,2.66598 4.96553,-4.85871 7.18793,-3.67333 4.28605,-4.28012 -0.84417,-4.41253 -4.41511,-4.92657 -3.10512,-3.71488 -0.69283,-3.728221 3.25793,-4.40919 5.37203,-2.538401 4.47001,0.361992 4.86316,2.039919 3.78906,5.78891 -0.22699,5.965461 -3.45673,5.94617 -3.84395,1.78474 -3.19414,0.92279 -0.1083,3.14369 3.41223,4.87949 1.68089,3.71932 3.67333,5.76072 3.65108,-2.90335 1.1112,-5.08274 2.01024,-7.16863 -1.24026,-9.82127 -3.53833,-9.902871 -8.69969,-7.609264 -5.3657,-6.633218 -1.28517,-5.462375 0.68244,-5.557475 2.72533,-2.940447 -2.08998,-2.765536 -6.10084,-1.254953 -7.54844,0.0044 -5.59456,-0.130556 -7.20363,0.70935 6.78675,2.349783 z"
         id="path87"
         sodipodi:nodetypes="ccccccccccccccccccccccccccccccccccccccccccccc" />
      <path
         style="fill:#4d4d4d;stroke:#000000;stroke-width:0.264583px;stroke-linecap:butt;stroke-linejoin:miter;stroke-opacity:1"
         d="m 124.96295,102.51494 3.24218,3.53462 2.15415,2.79506 2.94638,1.11268 5.13762,0.20176 5.38687,-4.29495 1.54291,-4.10802 -1.5444,-4.677711 -3.19265,-4.924 -5.38982,-2.265029 -4.47001,-0.361992 -2.33813,1.018824 -3.0339,1.519577 -3.25793,4.40919 0.69283,3.728221 z"
         id="path268"
         sodipodi:nodetypes="cccccccccccccccc" />
      <path
         style="fill:#000000;stroke:#000000;stroke-width:0.264583px;stroke-linecap:butt;stroke-linejoin:miter;stroke-opacity:1"
         d="m 126.59598,102.18764 2.64521,0.2077 2.42417,-1.47467 1.0474,-1.611171 -0.58452,-2.42713 -2.02657,-1.91084 -1.54737,0.54892 -2.28471,1.63045 -0.21511,1.91975 z"
         id="path538" />
      <path
         style="fill:#000000;stroke:#000000;stroke-width:0.264583px;stroke-linecap:butt;stroke-linejoin:miter;stroke-opacity:1"
         d="m 136.45218,100.68665 1.41681,1.79067 2.79504,1.23137 1.55331,-0.32045 -0.71064,-2.53098 -1.01031,-0.34864 0.25814,-3.670371 -2.65707,-1.89452 -0.77887,2.24019 z"
         id="path686" />
      <path
         style="fill:#d45500;stroke:#000000;stroke-width:0.264583px;stroke-linecap:butt;stroke-linejoin:miter;stroke-opacity:1"
         d="m 112.29527,123.40333 -3.95373,-6.96984 -0.05,-11.64382 1.61117,-8.448971 1.45093,-3.46563 -3.3986,2.61046 -5.55626,5.731691 -4.928168,4.0525 -6.36332,6.43489 -5.44621,3.71191 -5.65984,7.80361 -0.36941,10.82565 -4.32907,12.99761 -0.2804,5.95804 6.97307,2.92498 11.19628,6.13076 8.358468,-0.18396 c 2.87753,-1.14949 3.73044,-5.46656 3.23271,-11.89679 l -1.08301,-4.14363 -4.760798,-5.42544 -4.41808,-5.10943 -1.84261,-6.19393 -0.66167,-3.62438 0.3116,-1.59125 5.34824,-4.19024 1.44352,1.2551 2.605158,0.33974 1.99392,2.19273 2.28471,0.51183 z"
         id="path834"
         sodipodi:nodetypes="cccccccccccccccccccccccccccccc" />
      <path
         style="fill:#000000;stroke:#000000;stroke-width:0.264583px;stroke-linecap:butt;stroke-linejoin:miter;stroke-opacity:1"
         d="m 103.34844,63.321625 -4.889868,2.885556 -3.52052,3.29947 -2.01322,1.396045 -2.6007,2.255036 -2.91078,2.808409 -4.18665,5.74589 -2.82918,3.035395 -0.23886,4.225225 0.16468,7.297688 -4.08131,8.894041 -0.81746,9.3851 -2.32772,7.14639 v 3.56503 l -0.71064,2.29806 -0.70915,6.91643 -0.90201,9.3762 -4.33204,8.72342 c 7.81734,13.65641 7.38738,13.29553 24.31293,14.49602 l 3.92406,-4.13769 -1.36637,-2.18976 v 0 l -11.3182,-4.81717 -3.06952,-5.47588 0.72695,-6.68647 c 0,0 0.98658,-3.95077 1.35451,-6.4951 0.36793,-2.54433 1.10971,-9.14773 1.10971,-9.14773 l 2.13487,-6.28739 3.30392,-5.09015 2.66451,-4.68513 7.25023,-6.78884 3.333598,-2.15267 4.76969,-4.545681 2.38114,-3.08584 3.38255,-1.86485 2.53395,-3.183744 2.51021,-2.554712 2.45531,-3.014628 0.27661,-5.617537 -0.43981,-3.662229 -0.1988,-3.342497 -0.58304,-3.609538 -3.31579,-4.330557 -3.7846,-1.075592 -3.92999,-0.24034 z"
         id="path1624"
         sodipodi:nodetypes="cccccccccccccccccccccccccscccccccccccccccccccc" />
      <g
         id="g3872"
         transform="translate(218.02228,-9.0102604)">
        <path
           style="fill:#ffffff;stroke:#000000;stroke-width:0.215118px;stroke-linecap:butt;stroke-linejoin:miter;stroke-opacity:1"
           d="m -114.21609,89.385919 0.60038,0.87969 0.97045,0.610247 1.49761,0.265833 1.65519,-0.0449 0.95326,-0.518317 0.79164,-0.743487 0.30718,-0.832449 -0.10518,-0.835836 -0.98247,-1.227914 -1.32353,-0.824616 -1.1602,-0.0718 -1.37357,0.269857 -1.14559,0.889423 -0.55337,0.695195 -0.18632,0.754495 z"
           id="path1961" />
        <circle
           style="fill:#aa4400;stroke:#000000;stroke-width:0.338836;stroke-miterlimit:4;stroke-dasharray:none;stroke-opacity:1"
           id="path3754"
           cx="-110.3033"
           cy="89.050522"
           r="2.3074915" />
        <ellipse
           style="fill:#000000;stroke-width:0.295189"
           id="path2303"
           cx="-109.71096"
           cy="88.816238"
           rx="1.0293653"
           ry="0.97757512" />
        <ellipse
           style="fill:#ffffff;stroke:none;stroke-width:0;stroke-miterlimit:4;stroke-dasharray:none"
           id="path2407"
           cx="-109.16125"
           cy="88.505295"
           rx="0.42631754"
           ry="0.40993196" />
      </g>
      <g
         id="g7686"
         transform="matrix(1.2176185,0,0,1.2176185,236.42492,-27.794591)">
        <ellipse
           style="fill:#aa4400;stroke:#000000;stroke-width:0.3;stroke-miterlimit:4;stroke-dasharray:none;stroke-opacity:1"
           id="path3896"
           cx="-82.42981"
           cy="88.362305"
           rx="1.9840091"
           ry="1.894578" />
        <ellipse
           style="fill:#000000;stroke:#000000;stroke-width:0.350035;stroke-miterlimit:4;stroke-dasharray:none;stroke-opacity:1"
           id="path4078"
           cx="-82.974899"
           cy="88.597321"
           rx="0.86352473"
           ry="0.73921269" />
        <ellipse
           style="fill:#ffffff;stroke:none;stroke-width:0.273631;stroke-miterlimit:4;stroke-dasharray:none;stroke-opacity:1"
           id="path4204"
           cx="-83.318703"
           cy="88.289551"
           rx="0.50080085"
           ry="0.47921085" />
      </g>
      <path
         style="fill:#ffffff;stroke:#000000;stroke-width:0.264583px;stroke-linecap:butt;stroke-linejoin:miter;stroke-opacity:1"
         d="m 111.49979,146.57942 4.75486,5.61088 4.36911,1.78474 8.49049,2.60813 6.05892,-0.13946 5.09609,-0.59195 1.86188,-1.55182 -12.22614,-1.21208 -7.93565,-3.9018 -3.5205,-2.47906 -2.95824,-0.51183 -5.21774,-1.9969 z"
         id="path4829" />
      <path
         style="fill:#000000;stroke:#000000;stroke-width:0.264583px;stroke-linecap:butt;stroke-linejoin:miter;stroke-opacity:1"
         d="m 119.73,148.46231 -7.56033,-3.67333 c 0,0 -1.33522,-0.26704 -3.28613,-0.64684 -1.9509,-0.3798 -4.99372,-0.36199 -6.95945,-1.11713 -1.965738,-0.75514 -7.158258,-5.61237 -7.158258,-5.61237 l -3.05171,-7.93565 0.6142,-5.58863 2.98495,-3.2965 2.36329,-0.89374 1.44352,1.2551 -3.63175,5.66343 -0.66909,2.58142 0.89163,3.68817 3.93889,2.90633 4.115438,2.94638 5.03526,-1.178 v 0 l 1.79216,-0.20325 5.28183,3.55129 1.59162,5.38725 z"
         id="path4977"
         sodipodi:nodetypes="ccssccccccccccccccccc" />
      <path
         style="fill:#ff8080;stroke:#000000;stroke-width:0.299534px;stroke-linecap:butt;stroke-linejoin:miter;stroke-opacity:1"
         d="m 110.21299,129.43322 2.03688,4.00295 2.1552,0.97893 0.86756,2.34452 0.60182,4.14938 0.97901,4.23164 2.30264,2.33629 3.88345,5.4837 4.96532,1.65515 5.22765,1.87233 6.35239,0.88679 7.3674,-1.75057 2.87187,-3.85817 0.8024,-5.85882 -0.48692,-5.11186 -2.11575,-1.39355 -2.48953,-3.48305 -5.50369,-3.41558 -2.0986,0.22868 -4.50926,-2.66369 -2.67811,-2.04508 -4.1492,-0.46232 -4.06177,-0.36854 -4.21435,-0.24515 h -2.69184 z"
         id="path1210" />
      <path
         style="fill:#d45500;stroke:#000000;stroke-width:0.145688px;stroke-linecap:butt;stroke-linejoin:miter;stroke-opacity:1"
         d="m 109.72909,73.42357 2.11211,-0.802087 0.93984,-0.600071 -0.10003,-1.649019 -1.62734,-1.698988 -1.84922,0.041 -0.97617,0.07218 -1.23281,1.860431 -0.17656,1.282571 0.6996,1.234735 0.6793,0.237465 z"
         id="path7272" />
      <path
         style="fill:#d45500;stroke:#000000;stroke-width:0.218857px;stroke-linecap:butt;stroke-linejoin:miter;stroke-opacity:1"
         d="m 132.78124,72.908882 1.2477,1.54835 1.65514,0.287283 0.97947,-0.701322 -0.26441,-2.462909 -0.41823,-0.904489 -1.72315,-1.543614 -1.38372,-0.0083 -0.67311,0.803796 -0.16081,1.82201 z"
         id="path7488" />
      <path
         style="fill:#d45500;stroke:#000000;stroke-width:0.264583px;stroke-linecap:butt;stroke-linejoin:miter;stroke-opacity:1"
         d="m 147.98455,110.64886 4.37654,7.06627 -4.33718,21.6868 -2.48953,-3.48305 -5.50369,-3.41558 -2.0986,0.22868 -1.9182,-0.77476 5.82086,-2.11666 3.65108,-2.90335 3.12144,-12.25137 z"
         id="path1023" />
      <ellipse
         style="fill:#ffffff;fill-opacity:0;stroke-width:0.264583"
         id="path1040"
         cx="115.5574"
         cy="118.77536"
         rx="64.33802"
         ry="58.987358" />
    </g>
  </g>
</svg>
