<?xml version="1.0" encoding="UTF-8" standalone="no"?>
<!-- Created with Inkscape (http://www.inkscape.org/) -->

<svg
   width="265.96075mm"
   height="358.12158mm"
   viewBox="0 0 265.96075 358.1216"
   version="1.1"
   id="svg5"
   inkscape:version="1.1.2 (0a00cf5339, 2022-02-04)"
   sodipodi:docname="Bernese_Mountain_Buffed.svg"
   xmlns:inkscape="http://www.inkscape.org/namespaces/inkscape"
   xmlns:sodipodi="http://sodipodi.sourceforge.net/DTD/sodipodi-0.dtd"
   xmlns="http://www.w3.org/2000/svg"
   xmlns:svg="http://www.w3.org/2000/svg">
  <sodipodi:namedview
     id="namedview7"
     pagecolor="#ffffff"
     bordercolor="#666666"
     borderopacity="1.0"
     inkscape:pageshadow="2"
     inkscape:pageopacity="0.0"
     inkscape:pagecheckerboard="0"
     inkscape:document-units="mm"
     showgrid="false"
     inkscape:zoom="0.24630191"
     inkscape:cx="850.58211"
     inkscape:cy="286.23407"
     inkscape:window-width="1920"
     inkscape:window-height="1011"
     inkscape:window-x="0"
     inkscape:window-y="0"
     inkscape:window-maximized="1"
     inkscape:current-layer="layer1"
     fit-margin-top="4"
     fit-margin-left="4"
     fit-margin-right="4"
     fit-margin-bottom="4" />
  <defs
     id="defs2">
    <inkscape:path-effect
       effect="spiro"
       id="path-effect2111"
       is_visible="true"
       lpeversion="1" />
  </defs>
  <g
     inkscape:label="Layer 1"
     inkscape:groupmode="layer"
     id="layer1"
     transform="translate(49.328226,-52.571505)">
    <rect
       style="fill:#ffffff;stroke:#000000;stroke-width:0.264583"
       id="rect1607"
       width="257.69617"
       height="349.85699"
       x="-45.195934"
       y="56.703796"
       inkscape:export-filename="/home/wind/Pictures/Buffed2.png"
       inkscape:export-xdpi="75.620003"
       inkscape:export-ydpi="75.620003" />
    <path
       style="fill:#000000;stroke-width:0.651669"
       d="m 58.759336,395.10571 c -1.150404,-1.24778 -1.166692,-1.36576 -0.402465,-2.91461 0.411312,-0.8336 0.121108,-2.35557 -0.994424,-5.21524 -0.866376,-2.22096 -2.112941,-5.82035 -2.770143,-7.99864 -0.65721,-2.17829 -2.180744,-5.87257 -3.385642,-8.20951 -2.28992,-4.44139 -2.85757,-8.62518 -1.534147,-11.30734 0.508656,-1.03089 0.384619,-1.74712 -0.550549,-3.17917 -2.284426,-3.49818 -6.223332,-12.89346 -7.229031,-17.24304 -0.835897,-3.61521 -0.894477,-5.33363 -0.344004,-10.09122 0.364903,-3.15371 0.466908,-6.80297 0.226687,-8.10945 -0.240221,-1.30648 -0.501598,-3.13895 -0.580833,-4.07215 -0.07924,-0.9332 -0.581065,-3.52919 -1.115163,-5.76888 -0.534105,-2.23968 -1.154997,-6.36273 -1.379756,-9.16233 -0.530864,-6.61228 -3.237828,-18.80322 -4.66512,-21.00958 -0.614304,-0.94962 -1.692599,-3.15266 -2.396206,-4.89564 -1.374162,-3.4041 -9.738592,-12.75582 -11.42305,-12.77136 -2.330511,-0.0215 -5.614304,4.48565 -5.614304,7.70589 0,0.53428 1.679371,2.98139 3.731936,5.43804 5.52047,6.6073 5.958989,7.75231 5.879622,15.35228 -0.07216,6.90932 -1.416623,15.33945 -3.308552,20.74546 -1.131182,3.23225 -1.132164,3.41375 -0.0311,5.75469 0.625297,1.32944 3.703265,5.76028 6.839926,9.8463 6.207119,8.08582 8.11446,12.43825 6.81076,15.54176 -0.528616,1.2584 -0.45525,1.94658 0.338573,3.17586 0.557381,0.86314 1.01342,2.29958 1.01342,3.19209 0,1.39548 -0.240991,1.57787 -1.720737,1.30235 -0.946406,-0.17621 -2.241952,-0.56081 -2.878988,-0.85465 -1.102367,-0.50849 -1.10992,-0.43289 -0.156431,1.56703 3.012467,6.31861 -1.333697,11.42984 -7.386482,8.68674 l -2.333382,-1.05748 1.325186,2.3257 1.325181,2.32571 -1.282982,1.39159 c -0.95357,1.03427 -2.091497,1.39159 -4.431712,1.39159 -3.631407,0 -6.356399,-1.08098 -9.1375737,-3.62481 -1.8768366,-1.71667 -1.9759886,-1.73583 -2.2878801,-0.44219 -0.7458178,3.09344 -2.3587621,1.40162 -13.9165433,-14.59701 -5.2895099,-7.32191 -7.8224289,-11.2915 -9.5272979,-14.93121 -0.699396,-1.49312 -3.201711,-5.31257 -5.560705,-8.48767 -2.358993,-3.1751 -4.758609,-6.99274 -5.332472,-8.48364 -5.436016,-14.12277 -5.774688,-15.40401 -5.673597,-21.46418 0.05375,-3.22206 0.838625,-10.55193 1.744177,-16.28859 1.514606,-9.59502 1.585063,-10.86891 0.879835,-15.90755 -1.208251,-8.63257 -0.681155,-12.24986 3.38655,-23.24061 2.247665,-6.07309 3.909753,-11.79715 4.434103,-15.27055 0.910395,-6.03073 2.192113,-9.96583 5.729405,-17.59029 6.449155,-13.90084 14.5362214,-21.84779 24.9576714,-24.52525 3.3973996,-0.87285 10.4314176,-1.64768 35.0404736,-3.85988 11.213277,-1.008 14.491001,-2.77573 16.936895,-9.13436 -3.242382,-89.070326 109.901755,-58.41478 69.557935,4.23332 -2.28665,3.45364 -2.51846,3.10114 4.47244,6.8009 l 4.61754,2.44372 11.42369,0.48016 c 10.06019,0.42285 12.03545,0.70115 16.54922,2.33162 5.51875,1.9935 13.27176,7.16259 15.98097,10.65487 2.91447,3.75685 6.60219,12.7123 8.53363,20.72349 l 1.88102,7.80205 -0.20266,23.51076 c -0.11147,12.93093 -0.0966,28.24464 0.033,34.03048 0.15488,6.91429 -0.0253,11.56646 -0.52556,13.57383 -0.41865,1.67976 -1.0159,5.48755 -1.32722,8.46176 -0.63804,6.09556 -1.49824,9.41821 -3.08049,11.89898 -2.43699,3.82084 -7.41677,14.13958 -8.38342,17.37152 -0.5689,1.90209 -1.58933,4.63901 -2.26762,6.08205 -0.67828,1.44304 -1.23942,3.2463 -1.24698,4.00726 -0.0207,2.07534 -2.0952,6.63653 -4.85723,10.67913 -1.35263,1.97975 -3.08385,4.83847 -3.84715,6.3527 -0.76331,1.51424 -1.97946,3.15391 -2.70257,3.64373 -1.13169,0.76658 -1.42941,0.7205 -2.13828,-0.33101 -0.78365,-1.16242 -0.89659,-1.14714 -2.33192,0.31543 -2.7426,2.79465 -9.86831,3.74803 -10.99199,1.47066 -0.51398,-1.04166 -0.99966,-1.20226 -2.36848,-0.78315 -0.94705,0.28997 -2.14428,0.38403 -2.6605,0.20902 -1.70831,-0.57916 -4.97142,-4.42974 -5.65346,-6.67127 -0.62074,-2.0401 -0.83263,-2.17765 -2.81644,-1.82847 -2.83531,0.49905 -3.37261,-0.99412 -1.55805,-4.3299 1.33916,-2.46184 1.34472,-2.57874 0.29486,-6.19906 l -1.07004,-3.68991 2.09473,-4.69655 c 1.31238,-2.94249 2.92079,-5.3725 4.30654,-6.50643 4.29805,-3.51696 8.7819,-8.64181 8.7819,-10.03733 0,-0.76866 -0.87465,-2.68758 -1.94368,-4.26428 -2.67815,-3.95001 -4.31469,-8.96042 -4.30743,-13.18754 0.009,-5.24338 1.61711,-8.54453 9.84902,-20.21833 2.8705,-4.0707 2.66289,-5.45885 -1.52944,-10.22613 -5.46442,-6.21384 -5.17277,-6.52092 -11.50122,12.11012 -1.44804,4.26307 -1.56208,10.45454 -0.26595,14.43915 1.62717,5.00229 1.25867,7.38508 -1.89498,12.25358 -1.55846,2.40589 -3.67516,5.34626 -4.70378,6.53413 l -1.87021,2.15977 1.57517,3.86323 c 0.86633,2.12477 1.57516,4.60645 1.57516,5.51483 0,0.90839 -1.50316,4.91709 -3.34036,8.90821 -1.8372,3.99114 -3.69522,8.86747 -4.12893,10.83629 -0.71837,3.26099 -0.67167,3.84945 0.5246,6.60984 1.68519,3.88856 1.66244,4.34338 -0.46839,9.36562 -0.97986,2.30947 -2.45813,5.8762 -3.28504,7.92605 -0.82691,2.04985 -2.84984,5.66734 -4.49539,8.03886 -1.64556,2.37151 -3.05344,4.60496 -3.12862,4.96321 -0.0752,0.35824 1.1304,1.32193 2.67906,2.14152 1.54866,0.81959 2.81575,1.94827 2.81575,2.50819 0,0.84593 -1.4421,1.04987 -8.53015,1.20634 -7.51608,0.16593 -8.57818,0.0525 -8.93424,-0.95387 -0.24511,-0.69283 0.0874,-1.70959 0.84513,-2.58447 1.15158,-1.32956 1.18399,-1.67941 0.41466,-4.47566 -0.45901,-1.66835 -1.03047,-6.39289 -1.26991,-10.49897 -0.3526,-6.04669 -0.2484,-7.94844 0.54822,-10.00603 1.02668,-2.6518 1.00576,-3.1156 -0.89574,-19.85639 -1.78687,-15.73154 -1.96942,-16.17475 -6.690538,-16.24471 l -2.961359,-0.0439 -2.72683,6.72545 c -3.2785,8.08606 -5.02894,10.93147 -10.200139,16.58073 -7.52817,8.22414 -7.417799,7.97699 -7.425514,16.62742 -0.0082,9.19124 -0.668985,13.35283 -2.449335,15.42558 -1.98234,2.3079 -1.708324,4.33649 0.874366,6.47316 4.388362,3.63051 1.389298,6.21506 -7.338264,6.32399 -3.014563,0.0376 -4.452906,-0.24501 -5.162212,-1.01436 z m 41.743114,-74.56233 c 23.65204,-2.30764 21.31149,-19.56603 28.0471,-36.01588 0.62447,-1.4143 -60.301134,-53.80873 -60.699994,-54.30068 -24.150734,-0.60806 -9.672489,26.89143 -9.760639,63.46302 -0.317382,23.40969 22.12217,30.33916 42.413533,26.85354 z"
       id="path941"
       sodipodi:nodetypes="ssssssssssssssssssssssssssssscccssssssssssssssssccscsssscssssssscsssssssssssscssssssssssscssssssssssssssssssscssssssssccccc"
       inkscape:export-filename="/home/wind/Pictures/Bernesespace2.png"
       inkscape:export-xdpi="75.620003"
       inkscape:export-ydpi="75.620003" />
    <path
       style="fill:#ffffff;stroke:#000000;stroke-width:0.264583px;stroke-linecap:butt;stroke-linejoin:miter;stroke-opacity:1"
       d="m 122.61837,112.35158 0.84417,4.41253 1.97315,-0.91981 3.19414,-0.92279 3.84395,-1.78474 0.74615,-1.29142 -2.51756,1.82067 -5.13762,-0.20176 -2.94638,-1.11268 0.84417,4.41253 1.97315,-0.91981 3.19414,-0.92279 3.84395,-1.78474"
       id="path2624"
       inkscape:export-filename="/home/wind/Pictures/Bernesespace2.png"
       inkscape:export-xdpi="75.620003"
       inkscape:export-ydpi="75.620003" />
    <path
       style="fill:#ffaaaa;stroke:none;stroke-width:0.264583px;stroke-linecap:butt;stroke-linejoin:miter;stroke-opacity:1"
       d="m 102.47208,132.69585 1.76249,3.60954 1.86487,0.88272 1.43228,3.07847 0.60182,4.14938 -2.34581,-0.0931 -4.72818,-3.25496 -5.03526,1.178 -8.05433,-5.85271 -0.89163,-3.68815 0.66909,-2.58144 3.63175,-5.66344 2.60516,0.33974 4.27863,2.70456 6.2914,-0.59417 7.4342,-2.19273 7.18793,-3.67333 4.28605,-4.28012 1.97315,-0.91981 4.9848,11.74248 3.67333,5.76072 -5.82084,2.11668 -8.03504,-4.03978 -13.0807,-0.97026 z"
       id="path5125"
       sodipodi:nodetypes="ccccccccccccccccccccccccc"
       inkscape:export-filename="/home/wind/Pictures/Bernesespace2.png"
       inkscape:export-xdpi="75.620003"
       inkscape:export-ydpi="75.620003" />
    <path
       style="fill:#000000;stroke:#000000;stroke-width:0.264583px;stroke-linecap:butt;stroke-linejoin:miter;stroke-opacity:1"
       d="m 120.73721,78.763805 1.28515,5.462375 2.949,3.547909 0.82373,3.383357 4.18814,2.284702 3.52337,2.643204 3.49691,5.363638 2.05623,6.64939 1.1839,6.05744 1.15273,2.55471 3.22381,4.51156 -2.37223,6.26217 -1.25214,7.62113 -1.49248,5.36906 -0.86641,3.14963 -1.33818,7.31254 1.15719,3.34547 3.62734,0.99103 4.85129,0.9302 0.18693,-9.36581 -0.36199,-6.46543 0.92575,-10.28563 v -7.21611 l -0.72695,-4.46853 -1.28774,-6.18948 -1.25363,-3.69855 -1.01624,-5.42692 0.51331,-7.910428 -1.30258,-4.873524 -1.6349,-5.615334 -4.92399,-5.070864 -5.26669,-6.28146 -3.92406,-3.634758 -2.69417,-1.152739 -2.11261,-1.047406 -0.91537,5.167296 -0.55485,3.854328 z"
       id="path4453"
       sodipodi:nodetypes="cccccccccccccccccccccccccccccccccccccc"
       inkscape:export-filename="/home/wind/Pictures/Bernesespace2.png"
       inkscape:export-xdpi="75.620003"
       inkscape:export-ydpi="75.620003" />
    <path
       style="fill:#ffffff;stroke:#000000;stroke-width:0.264583px;stroke-linecap:butt;stroke-linejoin:miter;stroke-opacity:1"
       d="m 106.84053,70.396436 4.53223,12.360585 -0.27661,5.617537 -8.21973,8.865704 -2.32579,11.056368 0.05,11.64382 3.95373,6.96984 2.46867,2.66598 4.96553,-4.85871 7.18793,-3.67333 4.28605,-4.28012 -0.84417,-4.41253 -4.41511,-4.92657 -3.10512,-3.71488 -0.69283,-3.728218 3.25793,-4.40919 5.37203,-2.538401 4.47001,0.361992 4.86316,2.039919 3.78906,5.788908 -0.22699,5.96546 -3.45673,5.94617 -3.84395,1.78474 -3.19414,0.92279 -0.1083,3.14369 3.41223,4.87949 1.68089,3.71932 3.67333,5.76072 3.65108,-2.90335 1.1112,-5.08274 2.01024,-7.16863 -1.24026,-9.82127 -3.53833,-9.902868 -8.69969,-7.609264 -5.3657,-6.633218 -1.28517,-5.462375 0.68244,-5.557475 2.72533,-2.940447 -2.08998,-2.765536 -6.10084,-1.254953 -7.54844,0.0044 -5.59456,-0.130556 -7.203632,0.70935 6.786752,2.349783 z"
       id="path87"
       sodipodi:nodetypes="ccccccccccccccccccccccccccccccccccccccccccccc"
       inkscape:export-filename="/home/wind/Pictures/Bernesespace2.png"
       inkscape:export-xdpi="75.620003"
       inkscape:export-ydpi="75.620003" />
    <path
       style="fill:#4d4d4d;stroke:#000000;stroke-width:0.264583px;stroke-linecap:butt;stroke-linejoin:miter;stroke-opacity:1"
       d="m 117.22204,106.0219 3.24218,3.53462 2.15415,2.79506 2.94638,1.11268 5.13762,0.20176 5.38687,-4.29495 1.54291,-4.10802 -1.5444,-4.67771 -3.19265,-4.923998 -5.38982,-2.265029 -4.47001,-0.361992 -2.33813,1.018824 -3.0339,1.519577 -3.25793,4.40919 0.69283,3.728218 z"
       id="path268"
       sodipodi:nodetypes="cccccccccccccccc"
       inkscape:export-filename="/home/wind/Pictures/Bernesespace2.png"
       inkscape:export-xdpi="75.620003"
       inkscape:export-ydpi="75.620003" />
    <path
       style="fill:#000000;stroke:#000000;stroke-width:0.264583px;stroke-linecap:butt;stroke-linejoin:miter;stroke-opacity:1"
       d="m 118.85507,105.6946 2.64521,0.2077 2.42417,-1.47467 1.0474,-1.61117 -0.58452,-2.42713 -2.02657,-1.910838 -1.54737,0.54892 -2.28471,1.630448 -0.21511,1.91975 z"
       id="path538"
       inkscape:export-filename="/home/wind/Pictures/Bernesespace2.png"
       inkscape:export-xdpi="75.620003"
       inkscape:export-ydpi="75.620003" />
    <path
       style="fill:#000000;stroke:#000000;stroke-width:0.264583px;stroke-linecap:butt;stroke-linejoin:miter;stroke-opacity:1"
       d="m 128.71127,104.19361 1.41681,1.79067 2.79504,1.23137 1.55331,-0.32045 -0.71064,-2.53098 -1.01031,-0.34864 0.25814,-3.67037 -2.65707,-1.894518 -0.77887,2.240188 z"
       id="path686"
       inkscape:export-filename="/home/wind/Pictures/Bernesespace2.png"
       inkscape:export-xdpi="75.620003"
       inkscape:export-ydpi="75.620003" />
    <path
       style="fill:#d45500;stroke:#000000;stroke-width:0.264583px;stroke-linecap:butt;stroke-linejoin:miter;stroke-opacity:1"
       d="m 104.55436,126.91029 -3.95373,-6.96984 -0.05,-11.64382 1.61117,-8.448968 1.45093,-3.46563 -3.3986,2.61046 -5.556262,5.731688 -4.92817,4.0525 -6.36332,6.43489 -5.44621,3.71191 -5.65984,7.80361 -0.36941,10.82565 -4.32907,12.99761 -0.2804,5.95804 6.97307,2.92498 11.19628,6.13076 8.35847,-0.18396 c 2.87753,-1.14949 3.73044,-5.46656 3.23271,-11.89679 l -1.08301,-4.14363 -4.7608,-5.42544 -4.41808,-5.10943 -1.84261,-6.19393 -0.66167,-3.62438 0.3116,-1.59125 5.34824,-4.19024 1.44352,1.2551 2.60516,0.33974 1.99392,2.19273 2.28471,0.51183 z"
       id="path834"
       sodipodi:nodetypes="cccccccccccccccccccccccccccccc"
       inkscape:export-filename="/home/wind/Pictures/Bernesespace2.png"
       inkscape:export-xdpi="75.620003"
       inkscape:export-ydpi="75.620003" />
    <path
       style="fill:#000000;stroke:#000000;stroke-width:0.264583px;stroke-linecap:butt;stroke-linejoin:miter;stroke-opacity:1"
       d="m 95.607528,66.828588 -4.88987,2.885556 -3.52052,3.29947 -2.01322,1.396045 -2.6007,2.255036 -2.91078,2.808409 -4.18665,5.74589 -2.82918,3.035395 -0.23886,4.225225 0.16468,7.297688 -4.08131,8.894038 -0.81746,9.3851 -2.32772,7.14639 v 3.56503 l -0.71064,2.29806 -0.70915,6.91643 -0.90201,9.3762 -7.198308,37.42616 c 7.81734,13.65641 15.773129,26.56471 32.698679,27.7652 l 28.850441,-4.89974 c 14.83741,-21.86966 19.87946,35.5573 20.77493,-42.95454 l -9.8869,-29.23145 -24.5141,14.6222 -19.785672,-17.10243 -9.71869,26.44942 -3.06952,-5.47588 0.72695,-6.68647 c 0,0 0.98658,-3.95077 1.35451,-6.4951 0.36793,-2.54433 1.10971,-9.14773 1.10971,-9.14773 l 2.13487,-6.28739 3.30392,-5.09015 2.66451,-4.68513 7.25023,-6.78884 3.3336,-2.15267 4.76969,-4.54568 2.381142,-3.085838 3.38255,-1.86485 2.53395,-3.183744 2.51021,-2.554712 2.45531,-3.014628 0.27661,-5.617537 -0.43981,-3.662229 -0.1988,-3.342497 -0.58304,-3.609538 -3.31579,-4.330557 -3.7846,-1.075592 -3.929992,-0.24034 z"
       id="path1624"
       sodipodi:nodetypes="cccccccccccccccccccccccccccscccccccccccccccccccc"
       inkscape:export-filename="/home/wind/Pictures/Bernesespace2.png"
       inkscape:export-xdpi="75.620003"
       inkscape:export-ydpi="75.620003" />
    <g
       id="g3872"
       transform="translate(210.28137,-5.5032979)"
       inkscape:export-filename="/home/wind/Pictures/Bernesespace2.png"
       inkscape:export-xdpi="75.620003"
       inkscape:export-ydpi="75.620003">
      <path
         style="fill:#ffffff;stroke:#000000;stroke-width:0.215118px;stroke-linecap:butt;stroke-linejoin:miter;stroke-opacity:1"
         d="m -114.21609,89.385919 0.60038,0.87969 0.97045,0.610247 1.49761,0.265833 1.65519,-0.0449 0.95326,-0.518317 0.79164,-0.743487 0.30718,-0.832449 -0.10518,-0.835836 -0.98247,-1.227914 -1.32353,-0.824616 -1.1602,-0.0718 -1.37357,0.269857 -1.14559,0.889423 -0.55337,0.695195 -0.18632,0.754495 z"
         id="path1961" />
      <circle
         style="fill:#aa4400;stroke:#000000;stroke-width:0.338836;stroke-miterlimit:4;stroke-dasharray:none;stroke-opacity:1"
         id="path3754"
         cx="-110.3033"
         cy="89.050522"
         r="2.3074915" />
      <ellipse
         style="fill:#000000;stroke-width:0.295189"
         id="path2303"
         cx="-109.71096"
         cy="88.816238"
         rx="1.0293653"
         ry="0.97757512" />
      <ellipse
         style="fill:#ffffff;stroke:none;stroke-width:0;stroke-miterlimit:4;stroke-dasharray:none"
         id="path2407"
         cx="-109.16125"
         cy="88.505295"
         rx="0.42631754"
         ry="0.40993196" />
    </g>
    <g
       id="g7686"
       transform="matrix(1.2176185,0,0,1.2176185,228.68401,-24.287628)"
       inkscape:export-filename="/home/wind/Pictures/Bernesespace2.png"
       inkscape:export-xdpi="75.620003"
       inkscape:export-ydpi="75.620003">
      <ellipse
         style="fill:#aa4400;stroke:#000000;stroke-width:0.3;stroke-miterlimit:4;stroke-dasharray:none;stroke-opacity:1"
         id="path3896"
         cx="-82.42981"
         cy="88.362305"
         rx="1.9840091"
         ry="1.894578" />
      <ellipse
         style="fill:#000000;stroke:#000000;stroke-width:0.350035;stroke-miterlimit:4;stroke-dasharray:none;stroke-opacity:1"
         id="path4078"
         cx="-82.974899"
         cy="88.597321"
         rx="0.86352473"
         ry="0.73921269" />
      <ellipse
         style="fill:#ffffff;stroke:none;stroke-width:0.273631;stroke-miterlimit:4;stroke-dasharray:none;stroke-opacity:1"
         id="path4204"
         cx="-83.318703"
         cy="88.289551"
         rx="0.50080085"
         ry="0.47921085" />
    </g>
    <path
       style="fill:#ffffff;stroke:#000000;stroke-width:0.264583px;stroke-linecap:butt;stroke-linejoin:miter;stroke-opacity:1"
       d="m 103.75888,150.08638 4.75486,5.61088 4.36911,1.78474 8.49049,2.60813 6.05892,-0.13946 5.09609,-0.59195 1.86188,-1.55182 -12.22614,-1.21208 -7.93565,-3.9018 -3.5205,-2.47906 -2.95824,-0.51183 -5.21774,-1.9969 z"
       id="path4829"
       inkscape:export-filename="/home/wind/Pictures/Bernesespace2.png"
       inkscape:export-xdpi="75.620003"
       inkscape:export-ydpi="75.620003" />
    <path
       style="fill:#ffffff;stroke:none;stroke-width:0.937641px;stroke-linecap:butt;stroke-linejoin:miter;stroke-opacity:1"
       d="m 120.68468,160.49286 -24.19112,13.01124 -3.126975,10.00296 -1.202464,18.94038 10.478729,12.35717 11.50319,10.11851 11.7707,2.92319 -12.68178,-25.80039 9.42033,-18.55081 8.41835,-8.66308 -1.83006,-6.36927 2.97211,-11.86794 z"
       id="path4829-7"
       inkscape:export-filename="/home/wind/Pictures/Bernesespace2.png"
       inkscape:export-xdpi="75.620003"
       inkscape:export-ydpi="75.620003" />
    <path
       style="fill:#ffffff;stroke:none;stroke-width:0.760064px;stroke-linecap:butt;stroke-linejoin:miter;stroke-opacity:1"
       d="m 70.010469,160.31011 21.430876,6.44776 8.625885,8.7672 13.93874,17.76252 3.37898,14.36258 1.28375,12.48047 -3.91541,5.68597 -11.7213,-27.72256 -17.834411,-15.36718 -10.367827,-6.18654 -3.553565,-6.52347 -9.859686,-10.58349 z"
       id="path4829-7-5"
       inkscape:transform-center-x="1.2938677"
       inkscape:transform-center-y="6.0794883"
       inkscape:export-filename="/home/wind/Pictures/Bernesespace2.png"
       inkscape:export-xdpi="75.620003"
       inkscape:export-ydpi="75.620003" />
    <path
       style="fill:#000000;stroke:#000000;stroke-width:0.264583px;stroke-linecap:butt;stroke-linejoin:miter;stroke-opacity:1"
       d="m 111.98909,151.96927 -7.56033,-3.67333 c 0,0 -1.33522,-0.26704 -3.28613,-0.64684 -1.950902,-0.3798 -4.993722,-0.36199 -6.959452,-1.11713 -1.96574,-0.75514 -7.15826,-5.61237 -7.15826,-5.61237 l -3.05171,-7.93565 0.6142,-5.58863 2.98495,-3.2965 2.36329,-0.89374 1.44352,1.2551 -3.63175,5.66343 -0.66909,2.58142 0.89163,3.68817 3.93889,2.90633 4.11544,2.94638 5.035262,-1.178 v 0 l 1.79216,-0.20325 5.28183,3.55129 1.59162,5.38725 z"
       id="path4977"
       sodipodi:nodetypes="ccssccccccccccccccccc"
       inkscape:export-filename="/home/wind/Pictures/Bernesespace2.png"
       inkscape:export-xdpi="75.620003"
       inkscape:export-ydpi="75.620003" />
    <path
       style="fill:#ff8080;stroke:#000000;stroke-width:0.299534px;stroke-linecap:butt;stroke-linejoin:miter;stroke-opacity:1"
       d="m 102.47208,132.94018 2.03688,4.00295 2.1552,0.97893 0.86756,2.34452 0.60182,4.14938 0.97901,4.23164 2.30264,2.33629 3.88345,5.4837 4.96532,1.65515 5.22765,1.87233 6.35239,0.88679 7.3674,-1.75057 2.87187,-3.85817 0.8024,-5.85882 -0.48692,-5.11186 -2.11575,-1.39355 -2.48953,-3.48305 -5.50369,-3.41558 -2.0986,0.22868 -4.50926,-2.66369 -2.67811,-2.04508 -4.1492,-0.46232 -4.06177,-0.36854 -4.21435,-0.24515 h -2.69184 z"
       id="path1210"
       inkscape:export-filename="/home/wind/Pictures/Bernesespace2.png"
       inkscape:export-xdpi="75.620003"
       inkscape:export-ydpi="75.620003" />
    <path
       style="fill:#d45500;stroke:#000000;stroke-width:0.145688px;stroke-linecap:butt;stroke-linejoin:miter;stroke-opacity:1"
       d="m 101.98818,76.930533 2.11211,-0.802087 0.93984,-0.600071 -0.10003,-1.649019 -1.62734,-1.698988 -1.84922,0.041 -0.97617,0.07218 -1.232812,1.860431 -0.17656,1.282571 0.6996,1.234735 0.679302,0.237465 z"
       id="path7272"
       inkscape:export-filename="/home/wind/Pictures/Bernesespace2.png"
       inkscape:export-xdpi="75.620003"
       inkscape:export-ydpi="75.620003" />
    <path
       style="fill:#d45500;stroke:#000000;stroke-width:0.218857px;stroke-linecap:butt;stroke-linejoin:miter;stroke-opacity:1"
       d="m 125.04033,76.415845 1.2477,1.54835 1.65514,0.287283 0.97947,-0.701322 -0.26441,-2.462909 -0.41823,-0.904489 -1.72315,-1.543614 -1.38372,-0.0083 -0.67311,0.803796 -0.16081,1.82201 z"
       id="path7488"
       inkscape:export-filename="/home/wind/Pictures/Bernesespace2.png"
       inkscape:export-xdpi="75.620003"
       inkscape:export-ydpi="75.620003" />
    <path
       style="fill:#d45500;stroke:#000000;stroke-width:0.264583px;stroke-linecap:butt;stroke-linejoin:miter;stroke-opacity:1"
       d="m 140.24364,114.15582 4.37654,7.06627 -4.33718,21.6868 -2.48953,-3.48305 -5.50369,-3.41558 -2.0986,0.22868 -1.9182,-0.77476 5.82086,-2.11666 3.65108,-2.90335 3.12144,-12.25137 z"
       id="path1023"
       inkscape:export-filename="/home/wind/Pictures/Bernesespace2.png"
       inkscape:export-xdpi="75.620003"
       inkscape:export-ydpi="75.620003" />
  </g>
</svg>
